<svg aria-hidden="true" style="position: absolute; width: 0; height: 0; overflow: hidden;" version="1.1" xmlns="http://www.w3.org/2000/svg" xmlns:xlink="http://www.w3.org/1999/xlink">
<defs>
<symbol id="close" viewBox="0 0 32 32">
<path d="M30.919 6.303l-9.696 9.697 9.696 9.697c1.442 1.443 1.442 3.78 0 5.223-0.721 0.721-1.665 1.081-2.61 1.081-0.946 0-1.891-0.36-2.611-1.081l-9.698-9.698-9.697 9.698c-0.721 0.721-1.665 1.081-2.611 1.081s-1.889-0.36-2.61-1.081c-1.442-1.442-1.442-3.779 0-5.223l9.696-9.697-9.696-9.697c-1.442-1.442-1.442-3.78 0-5.222 1.442-1.441 3.778-1.441 5.221 0l9.698 9.697 9.697-9.697c1.443-1.441 3.779-1.441 5.221 0 1.443 1.442 1.443 3.78 0.001 5.222z"></path>
</symbol>
<symbol id="burger" viewBox="0 0 32 32">
<path d="M30.044 14.287h-28.075c-0.706 0-1.275-0.569-1.275-1.275v-1.856c0-5.775 4.694-10.469 10.463-10.469h9.694c5.769 0 10.469 4.694 10.469 10.469v1.856c0 0.7-0.575 1.275-1.275 1.275zM3.244 11.731h25.519v-0.581c0-4.362-3.55-7.912-7.912-7.912h-9.694c-4.362 0-7.912 3.55-7.912 7.912v0.581zM27.212 31.313h-22.419c-2.263 0-4.1-1.837-4.1-4.1v-3.387c0-0.706 0.569-1.275 1.275-1.275h28.069c0.706 0 1.275 0.569 1.275 1.275v3.387c0.006 2.262-1.837 4.1-4.1 4.1zM3.244 25.1v2.113c0 0.856 0.694 1.55 1.55 1.55h22.419c0.856 0 1.55-0.694 1.55-1.55v-2.113h-25.519zM1.969 20.919c-0.45 0-0.887-0.238-1.119-0.663-0.338-0.619-0.113-1.394 0.506-1.731l2.625-1.438c1.569-0.863 3.519-0.863 5.094 0 0.813 0.444 1.825 0.444 2.637 0l1.181-0.65c1.569-0.863 3.525-0.863 5.094 0l1.094 0.6c0.813 0.444 1.825 0.444 2.637 0l1.281-0.706c1.569-0.863 3.519-0.863 5.094 0l2.569 1.413c0.619 0.337 0.844 1.113 0.506 1.731s-1.113 0.844-1.731 0.506l-2.569-1.406c-0.813-0.444-1.825-0.444-2.637 0l-1.281 0.706c-1.569 0.863-3.519 0.863-5.094 0l-1.094-0.6c-0.813-0.444-1.825-0.444-2.637 0l-1.188 0.637c-1.569 0.863-3.525 0.863-5.094 0-0.813-0.444-1.825-0.444-2.638 0l-2.625 1.438c-0.194 0.113-0.406 0.163-0.613 0.163z"></path>
</symbol>
<symbol id="search" viewBox="0 0 32 32">
<path d="M23.865 18.767c0.182-0.319 0.378-0.713 0.553-1.118l0.032-0.082c0.659-1.558 0.993-3.212 0.993-4.915s-0.334-3.357-0.993-4.915c-0.636-1.504-1.546-2.854-2.705-4.012s-2.509-2.069-4.012-2.705c-1.558-0.659-3.212-0.993-4.915-0.993s-3.357 0.334-4.915 0.993c-1.504 0.636-2.854 1.546-4.012 2.705s-2.069 2.509-2.705 4.012c-0.659 1.558-0.993 3.212-0.993 4.915s0.334 3.357 0.993 4.915c0.636 1.504 1.546 2.854 2.705 4.012s2.509 2.069 4.012 2.705c1.558 0.659 3.212 0.993 4.915 0.993s3.357-0.334 4.915-0.993c0.339-0.143 0.592-0.262 0.84-0.39l-0.071 0.033 7.074 7.074c0.627 0.627 1.46 0.972 2.346 0.972s1.719-0.345 2.346-0.972l0.57-0.57c1.294-1.294 1.294-3.398 0-4.692l-6.972-6.972zM18.856 21.012c-0.606 0.444-1.297 0.837-2.031 1.147l-0.068 0.025c-1.214 0.502-2.545 0.78-3.94 0.78-5.695 0-10.312-4.617-10.312-10.312s4.617-10.312 10.312-10.312 10.312 4.617 10.312 10.312c0 1.573-0.353 3.063-0.983 4.397-0.367 0.769-0.785 1.431-1.27 2.037l0.016-0.020c-0.592 0.74-1.262 1.381-2.007 1.925l-0.029 0.020zM29.202 28.796l-0.57 0.57c-0.181 0.182-0.432 0.294-0.709 0.294-0 0-0.001 0-0.001 0h0c-0 0-0.001 0-0.001 0-0.277 0-0.528-0.113-0.709-0.294l-6.702-6.702c0.454-0.351 0.857-0.706 1.236-1.085l-0 0c0.271-0.271 0.53-0.554 0.776-0.849l0.017-0.020 6.665 6.665c0.392 0.392 0.392 1.029 0 1.421z"></path>
<path d="M27.922 32.001c-0.893 0-1.733-0.348-2.365-0.98l-7.060-7.060c-0.171 0.091-0.419 0.208-0.67 0.317l-0.083 0.032c-1.561 0.66-3.218 0.995-4.925 0.995s-3.364-0.335-4.926-0.995c-1.507-0.637-2.86-1.549-4.021-2.711s-2.073-2.514-2.711-4.021c-0.66-1.561-0.995-3.218-0.995-4.925s0.335-3.364 0.995-4.925c0.637-1.507 1.549-2.86 2.711-4.021s2.514-2.073 4.021-2.711c1.561-0.66 3.218-0.995 4.926-0.995s3.364 0.335 4.925 0.995c1.507 0.637 2.86 1.549 4.021 2.711s2.073 2.514 2.711 4.021c0.66 1.561 0.995 3.218 0.995 4.925s-0.335 3.364-0.995 4.925c-0.205 0.482-0.398 0.872-0.609 1.249l0.033-0.064 6.958 6.958c1.304 1.304 1.304 3.426-0 4.73l-0.57 0.57c-0.632 0.632-1.472 0.98-2.365 0.98zM18.507 23.895l7.088 7.088c0.622 0.622 1.448 0.964 2.327 0.964s1.705-0.342 2.327-0.964l0.57-0.57c1.283-1.283 1.283-3.371 0-4.654l-6.987-6.987 0.010-0.018c0.182-0.318 0.377-0.711 0.552-1.115l0.032-0.082c0.658-1.555 0.991-3.205 0.991-4.904s-0.333-3.35-0.991-4.904c-0.635-1.5-1.543-2.848-2.699-4.004s-2.503-2.064-4.004-2.699c-1.555-0.657-3.205-0.991-4.905-0.991s-3.35 0.333-4.904 0.991c-1.5 0.635-2.848 1.543-4.004 2.699s-2.064 2.503-2.699 4.004c-0.658 1.555-0.991 3.205-0.991 4.904s0.333 3.35 0.991 4.904c0.635 1.5 1.543 2.847 2.699 4.004s2.503 2.064 4.004 2.699c1.555 0.658 3.205 0.991 4.904 0.991s3.35-0.333 4.904-0.991c0.339-0.143 0.591-0.262 0.838-0.389l-0.071 0.033 0.017-0.009zM27.922 29.688c-0.001 0-0.002 0-0.003 0-0.284 0-0.541-0.116-0.727-0.302l-6.723-6.723 0.024-0.019c0.452-0.35 0.855-0.705 1.233-1.083l-0 0c0.27-0.27 0.529-0.553 0.774-0.847l0.017-0.020 0.019-0.023 6.686 6.686c0.402 0.402 0.402 1.057 0 1.459l-0.57 0.57c-0.186 0.187-0.443 0.302-0.727 0.302-0.001 0-0.002 0-0.003 0h0zM20.55 22.667l6.68 6.68c0.185 0.185 0.43 0.286 0.691 0.286s0.507-0.102 0.691-0.286l0.57-0.57c0.381-0.381 0.381-1.002 0-1.383l-6.644-6.644c-0.257 0.307-0.51 0.583-0.775 0.848l0-0c-0.373 0.373-0.769 0.723-1.185 1.047l-0.029 0.021zM12.818 22.991c-5.701 0-10.339-4.638-10.339-10.339s4.638-10.339 10.339-10.339 10.339 4.638 10.339 10.339c0 1.541-0.331 3.024-0.985 4.409-0.368 0.771-0.787 1.434-1.274 2.042l0.016-0.021c-0.593 0.742-1.265 1.385-2.012 1.93l-0.029 0.021c-0.608 0.445-1.3 0.839-2.036 1.15l-0.068 0.025c-1.254 0.519-2.583 0.782-3.951 0.782zM12.818 2.367c-5.671 0-10.285 4.614-10.285 10.285s4.614 10.285 10.285 10.285c1.36 0 2.682-0.262 3.93-0.778 0.8-0.335 1.488-0.727 2.122-1.19l-0.029 0.020c0.773-0.563 1.441-1.203 2.015-1.92l0.016-0.020c0.468-0.584 0.885-1.244 1.225-1.949l0.027-0.062c0.65-1.377 0.98-2.853 0.98-4.386 0-5.671-4.614-10.285-10.285-10.285z"></path>
</symbol>
<symbol id="inputClose" viewBox="0 0 32 32">
<path d="M23.859 8.142c-0.305-0.305-0.726-0.493-1.191-0.493s-0.886 0.189-1.191 0.493l-5.524 5.524-5.443-5.444c-0.305-0.305-0.726-0.494-1.191-0.494-0.931 0-1.685 0.754-1.685 1.685 0 0.465 0.189 0.886 0.494 1.191v0l5.443 5.443-5.363 5.363c-0.305 0.305-0.493 0.726-0.493 1.191 0 0.931 0.754 1.685 1.685 1.685 0.465 0 0.887-0.189 1.191-0.494l5.363-5.363 5.443 5.443c0.304 0.305 0.725 0.493 1.189 0.493 0.001 0 0.002 0 0.002 0h-0c0 0 0 0 0 0 0.93 0 1.685-0.754 1.685-1.685 0-0.465-0.189-0.886-0.493-1.191l-5.443-5.443 5.524-5.524c0.305-0.305 0.494-0.726 0.494-1.191s-0.189-0.886-0.494-1.191v0z"></path>
</symbol>
<symbol id="auth" viewBox="0 0 32 32">
<path d="M26.5 19.104v-4.604c0-0.565-0.195-1.081-0.513-1.5h0.013c0.827 0 1.5-0.673 1.5-1.5v-3c0-1.378-1.122-2.5-2.5-2.5h-1.057c-1.216-3.208-4.313-5.5-7.943-5.5s-6.726 2.292-7.943 5.5h-1.057c-1.378 0-2.5 1.122-2.5 2.5v3c0 0.827 0.673 1.5 1.5 1.5h0.013c-0.318 0.411-0.511 0.933-0.513 1.5v4.604c-1.224 1.015-1.998 2.536-2 4.237v8.159h25v-8.159c0-1.678-0.765-3.215-2-4.238zM25.5 14.5v3.947c-0.309-0.164-0.669-0.307-1.045-0.411l-0.038-0.009-3.417-0.911v-1.257c1.031-0.757 1.87-1.712 2.474-2.814l0.022-0.045h0.504c0.828 0.001 1.499 0.672 1.5 1.499v0zM16 19.5c0.166 0 0.333-0.003 0.5-0.009v11.009h-1v-11.009c0.167 0.006 0.334 0.009 0.5 0.009zM16 18.5c-2.625 0-4-0.743-4-1v-1.004c1.193 0.639 2.555 1.004 4 1.004s2.807-0.365 4-1.004v1.004c0 0.257-1.375 1-4 1zM8.655 10.518c0.17-0.847 0.477-1.638 0.9-2.349-0.036 0.275-0.055 0.552-0.055 0.832 0 3.584 2.916 6.5 6.5 6.5s6.5-2.916 6.5-6.5c0-0.28-0.020-0.557-0.055-0.832 0.408 0.676 0.721 1.463 0.892 2.301l0.008 0.048c-0.704 3.41-3.73 5.983-7.346 5.983s-6.642-2.572-7.346-5.982zM16 4.5c1.793 0 3.438 0.631 4.726 1.683l-0.013-0.011c0.494 0.807 0.786 1.783 0.787 2.827v0c0 3.033-2.468 5.5-5.5 5.5s-5.5-2.467-5.5-5.5c0-0.999 0.273-1.974 0.784-2.825 1.275-1.043 2.922-1.675 4.716-1.675h0zM25 7c0.827 0 1.5 0.673 1.5 1.5v3c0 0.275-0.224 0.5-0.5 0.5h-2.057c0.351-0.89 0.555-1.921 0.557-2.999v-0.001c0-0.69-0.091-1.357-0.247-2zM23.4 7.835c-1.080-1.89-2.811-3.303-4.881-3.947l-0.060-0.016 0.691-1.668c2.226 1.035 3.857 3.128 4.25 5.631zM18.219 1.835l-0.743 1.794c-0.443-0.082-0.954-0.129-1.475-0.129s-1.032 0.047-1.527 0.137l0.052-0.008-0.735-1.796c0.659-0.211 1.418-0.333 2.204-0.333 0.001 0 0.003 0 0.004 0h-0c0.773 0 1.518 0.117 2.219 0.335zM12.861 2.198l0.684 1.672c-2.131 0.66-3.863 2.074-4.922 3.923l-0.022 0.042c0.393-2.508 2.029-4.603 4.26-5.636zM5.5 11.5v-3c0-0.827 0.673-1.5 1.5-1.5h0.748c-0.155 0.6-0.245 1.289-0.247 1.998v0.002c0 1.057 0.203 2.066 0.557 3h-2.057c-0.276 0-0.5-0.225-0.5-0.5zM6.5 14.5c0-0.827 0.673-1.5 1.5-1.5h0.504c0.626 1.147 1.465 2.102 2.472 2.842l0.024 0.017v1.257l-3.417 0.912c-0.414 0.113-0.774 0.257-1.113 0.435l0.030-0.014zM4.5 25.5h0.5c0.276 0 0.5 0.224 0.5 0.5v2c0 0.276-0.224 0.5-0.5 0.5h-0.5zM4.5 29.5h0.5c0.827 0 1.5-0.673 1.5-1.5v-2c0-0.827-0.673-1.5-1.5-1.5h-0.5v-1.159c0.002-2.072 1.403-3.817 3.309-4.341l0.032-0.007 3.353-0.894c0.479 0.72 1.812 1.148 3.307 1.317v11.084h-6v-5.378c0-1.502-0.585-2.913-1.646-3.975l-0.707 0.707c0.836 0.832 1.354 1.983 1.354 3.255 0 0.005 0 0.009-0 0.014v-0.001 5.378h-3zM24.5 30.5v-5.378c0-1.235 0.48-2.395 1.354-3.268l-0.707-0.707c-1.017 1.012-1.647 2.412-1.647 3.959 0 0.005 0 0.011 0 0.016v-0.001 5.378h-6v-11.084c1.495-0.168 2.828-0.597 3.307-1.317l3.352 0.894c1.938 0.531 3.338 2.276 3.34 4.348v1.159h-0.5c-0.827 0-1.5 0.673-1.5 1.5v2c0 0.827 0.673 1.5 1.5 1.5h0.5v1zM27.5 25.5v3h-0.5c-0.276 0-0.5-0.224-0.5-0.5v-2c0-0.276 0.224-0.5 0.5-0.5z"></path>
<path d="M18.5 25.5h4v-3h-4zM19.5 23.5h2v1h-2zM11.5 29.5c1.103 0 2-0.897 2-2s-0.897-2-2-2-2 0.897-2 2 0.897 2 2 2zM11.5 26.5c0.552 0 1 0.448 1 1s-0.448 1-1 1-1-0.448-1-1 0.448-1 1-1zM10.5 21.5h1v1h-1zM12.5 21.5h1v1h-1zM8.5 21.5h1v1h-1zM10.5 23.5h1v1h-1zM12.5 23.5h1v1h-1zM20.5 26.5h1v1h-1zM18.5 26.5h1v1h-1zM20.5 28.5h1v1h-1zM18.5 28.5h1v1h-1zM12.968 7.25l-0.866-0.5c-0.191 0.324-0.349 0.698-0.454 1.094l-0.007 0.031 0.969 0.249c0.078-0.306 0.199-0.6 0.357-0.875zM11.5 9c0 2.481 2.019 4.5 4.5 4.5v-1c-1.93 0-3.5-1.57-3.5-3.5z"></path>
</symbol>
<symbol id="telescope" viewBox="0 0 32 32">
<path d="M31.637 8.109c0.477-1.384 0.435-2.878-0.125-4.228s-1.586-2.436-2.902-3.078l-0.212-0.512c-0.072-0.172-0.239-0.29-0.434-0.29-0.065 0-0.127 0.013-0.183 0.037l0.003-0.001-4.166 1.725c-0.362 0.152-0.645 0.434-0.793 0.787l-0.004 0.010c-0.071 0.166-0.113 0.36-0.113 0.563s0.041 0.397 0.116 0.573l-0.004-0.010 0.013 0.031-16.376 6.874c-0.24 0.099-0.426 0.286-0.525 0.525s-0.099 0.503 0 0.743l0.204 0.492-3.298 1.366-0.012-0.029c-0.1-0.239-0.286-0.425-0.519-0.523l-0.006-0.002c-0.11-0.047-0.237-0.074-0.371-0.074s-0.262 0.027-0.378 0.077l0.006-0.002-0.926 0.383c-0.239 0.1-0.425 0.286-0.523 0.519l-0.002 0.006c-0.047 0.11-0.074 0.237-0.074 0.371s0.027 0.262 0.077 0.378l-0.002-0.006 1.534 3.703c0.1 0.239 0.286 0.425 0.519 0.523l0.006 0.002c0.12 0.050 0.246 0.074 0.371 0.074s0.252-0.025 0.371-0.074l0.926-0.383c0.24-0.099 0.426-0.286 0.525-0.525s0.099-0.503 0-0.743l-0.012-0.029 3.298-1.366 0.204 0.492c0.1 0.239 0.286 0.425 0.519 0.523l0.006 0.002c0.11 0.047 0.237 0.074 0.371 0.074h0c0.126 0 0.253-0.025 0.374-0.075l1.313-0.551c0.028-0.007 0.053-0.014 0.077-0.024l-0.003 0.001c0.028-0.012 0.052-0.025 0.074-0.039l-0.002 0.001 3.912-1.642c0.056 0.067 0.113 0.127 0.174 0.184l0.001 0.001-9.090 16.362c-0.037 0.066-0.059 0.144-0.059 0.228 0 0.259 0.21 0.469 0.469 0.47h0c0 0 0 0 0 0 0.176 0 0.329-0.096 0.409-0.239l0.001-0.002 3.762-6.772h5.377v6.544c0 0.259 0.21 0.47 0.47 0.47s0.47-0.21 0.47-0.47v0-6.544h5.377l3.762 6.772c0.082 0.145 0.235 0.242 0.41 0.242 0.084 0 0.162-0.022 0.23-0.060l-0.002 0.001c0.145-0.082 0.242-0.235 0.242-0.411 0-0.084-0.022-0.162-0.060-0.23l0.001 0.002-9.090-16.362c0.389-0.361 0.632-0.875 0.632-1.445 0-0.067-0.003-0.134-0.010-0.199l7.525-3.159 0.011 0.027c0.235 0.566 0.784 0.908 1.362 0.908 0.187 0 0.378-0.036 0.561-0.112l4.166-1.725c0.172-0.072 0.29-0.239 0.29-0.434 0-0.065-0.013-0.127-0.037-0.183l0.001 0.003-0.212-0.512zM3.494 17.773c-0.005 0.012-0.014 0.016-0.017 0.017l-0.926 0.383c-0.003 0.001-0.012 0.005-0.024 0s-0.016-0.014-0.017-0.017l-1.534-3.703c-0.002-0.004-0.003-0.008-0.003-0.012s0.001-0.008 0.003-0.012l-0 0c0.005-0.012 0.014-0.016 0.017-0.017l0.926-0.383c0.002-0.001 0.006-0.002 0.012-0.002 0.004 0 0.008 0.001 0.012 0.002 0.012 0.005 0.016 0.014 0.017 0.017l1.534 3.703c0.002 0.004 0.003 0.008 0.003 0.012s-0.001 0.008-0.003 0.012l0-0zM3.99 16.492l-0.791-1.909 3.298-1.366 0.791 1.909-3.298 1.366zM30.644 4.24c0.241 0.566 0.382 1.225 0.382 1.917 0 0.152-0.007 0.303-0.020 0.452l0.001-0.019-1.768-4.268c0.605 0.511 1.083 1.154 1.392 1.885l0.012 0.033zM8.76 16.143c-0.004 0.002-0.008 0.003-0.012 0.003s-0.008-0.001-0.012-0.003l0 0c-0.012-0.005-0.016-0.014-0.017-0.017l-1.917-4.628c-0.002-0.004-0.003-0.008-0.003-0.012s0.001-0.008 0.003-0.012l-0 0c0.005-0.012 0.014-0.016 0.019-0.018l0.951-0.399 1.941 4.686-0.953 0.4zM17.041 13.495c0 0.57-0.464 1.033-1.033 1.033s-1.033-0.464-1.033-1.033 0.464-1.033 1.033-1.033 1.033 0.464 1.033 1.033zM10.683 24.047l4.805-8.649c0.017 0.005 0.033 0.009 0.050 0.013v8.636h-4.855zM21.333 24.047h-4.855v-8.636c0.017-0.004 0.033-0.008 0.050-0.013l4.805 8.649zM17.654 12.41c-0.353-0.534-0.959-0.887-1.646-0.887-1.088 0-1.973 0.885-1.973 1.973 0 0.142 0.016 0.281 0.044 0.415l-3.501 1.47-1.941-4.686 14.557-6.111 1.941 4.686-7.482 3.141zM27.070 10.092c-0.271 0.112-0.583-0.017-0.695-0.288l-2.684-6.48c-0.026-0.060-0.041-0.13-0.041-0.204s0.015-0.144 0.042-0.207l-0.001 0.003c0.055-0.131 0.157-0.233 0.285-0.287l0.003-0.001 3.732-1.546 3.091 7.463-3.732 1.546z"></path>
</symbol>
</defs>
</svg>
