<svg aria-hidden="true" style="position: absolute; width: 0; height: 0; overflow: hidden;" version="1.1" xmlns="http://www.w3.org/2000/svg" xmlns:xlink="http://www.w3.org/1999/xlink">
<defs>
<symbol id="close" viewBox="0 0 32 32">
<path d="M30.919 6.303l-9.696 9.697 9.696 9.697c1.442 1.443 1.442 3.78 0 5.223-0.721 0.721-1.665 1.081-2.61 1.081-0.946 0-1.891-0.36-2.611-1.081l-9.698-9.698-9.697 9.698c-0.721 0.721-1.665 1.081-2.611 1.081s-1.889-0.36-2.61-1.081c-1.442-1.442-1.442-3.779 0-5.223l9.696-9.697-9.696-9.697c-1.442-1.442-1.442-3.78 0-5.222 1.442-1.441 3.778-1.441 5.221 0l9.698 9.697 9.697-9.697c1.443-1.441 3.779-1.441 5.221 0 1.443 1.442 1.443 3.78 0.001 5.222z"></path>
</symbol>
<symbol id="burger" viewBox="0 0 32 32">
<path d="M30.044 14.287h-28.075c-0.706 0-1.275-0.569-1.275-1.275v-1.856c0-5.775 4.694-10.469 10.463-10.469h9.694c5.769 0 10.469 4.694 10.469 10.469v1.856c0 0.7-0.575 1.275-1.275 1.275zM3.244 11.731h25.519v-0.581c0-4.362-3.55-7.912-7.912-7.912h-9.694c-4.362 0-7.912 3.55-7.912 7.912v0.581zM27.212 31.313h-22.419c-2.263 0-4.1-1.837-4.1-4.1v-3.387c0-0.706 0.569-1.275 1.275-1.275h28.069c0.706 0 1.275 0.569 1.275 1.275v3.387c0.006 2.262-1.837 4.1-4.1 4.1zM3.244 25.1v2.113c0 0.856 0.694 1.55 1.55 1.55h22.419c0.856 0 1.55-0.694 1.55-1.55v-2.113h-25.519zM1.969 20.919c-0.45 0-0.887-0.238-1.119-0.663-0.338-0.619-0.113-1.394 0.506-1.731l2.625-1.438c1.569-0.863 3.519-0.863 5.094 0 0.813 0.444 1.825 0.444 2.637 0l1.181-0.65c1.569-0.863 3.525-0.863 5.094 0l1.094 0.6c0.813 0.444 1.825 0.444 2.637 0l1.281-0.706c1.569-0.863 3.519-0.863 5.094 0l2.569 1.413c0.619 0.337 0.844 1.113 0.506 1.731s-1.113 0.844-1.731 0.506l-2.569-1.406c-0.813-0.444-1.825-0.444-2.637 0l-1.281 0.706c-1.569 0.863-3.519 0.863-5.094 0l-1.094-0.6c-0.813-0.444-1.825-0.444-2.637 0l-1.188 0.637c-1.569 0.863-3.525 0.863-5.094 0-0.813-0.444-1.825-0.444-2.638 0l-2.625 1.438c-0.194 0.113-0.406 0.163-0.613 0.163z"></path>
</symbol>
<symbol id="search" viewBox="0 0 32 32">
<path d="M23.865 18.767c0.182-0.319 0.378-0.713 0.553-1.118l0.032-0.082c0.659-1.558 0.993-3.212 0.993-4.915s-0.334-3.357-0.993-4.915c-0.636-1.504-1.546-2.854-2.705-4.012s-2.509-2.069-4.012-2.705c-1.558-0.659-3.212-0.993-4.915-0.993s-3.357 0.334-4.915 0.993c-1.504 0.636-2.854 1.546-4.012 2.705s-2.069 2.509-2.705 4.012c-0.659 1.558-0.993 3.212-0.993 4.915s0.334 3.357 0.993 4.915c0.636 1.504 1.546 2.854 2.705 4.012s2.509 2.069 4.012 2.705c1.558 0.659 3.212 0.993 4.915 0.993s3.357-0.334 4.915-0.993c0.339-0.143 0.592-0.262 0.84-0.39l-0.071 0.033 7.074 7.074c0.627 0.627 1.46 0.972 2.346 0.972s1.719-0.345 2.346-0.972l0.57-0.57c1.294-1.294 1.294-3.398 0-4.692l-6.972-6.972zM18.856 21.012c-0.606 0.444-1.297 0.837-2.031 1.147l-0.068 0.025c-1.214 0.502-2.545 0.78-3.94 0.78-5.695 0-10.312-4.617-10.312-10.312s4.617-10.312 10.312-10.312 10.312 4.617 10.312 10.312c0 1.573-0.353 3.063-0.983 4.397-0.367 0.769-0.785 1.431-1.27 2.037l0.016-0.020c-0.592 0.74-1.262 1.381-2.007 1.925l-0.029 0.020zM29.202 28.796l-0.57 0.57c-0.181 0.182-0.432 0.294-0.709 0.294-0 0-0.001 0-0.001 0h0c-0 0-0.001 0-0.001 0-0.277 0-0.528-0.113-0.709-0.294l-6.702-6.702c0.454-0.351 0.857-0.706 1.236-1.085l-0 0c0.271-0.271 0.53-0.554 0.776-0.849l0.017-0.020 6.665 6.665c0.392 0.392 0.392 1.029 0 1.421z"></path>
<path d="M27.922 32.001c-0.893 0-1.733-0.348-2.365-0.98l-7.060-7.060c-0.171 0.091-0.419 0.208-0.67 0.317l-0.083 0.032c-1.561 0.66-3.218 0.995-4.925 0.995s-3.364-0.335-4.926-0.995c-1.507-0.637-2.86-1.549-4.021-2.711s-2.073-2.514-2.711-4.021c-0.66-1.561-0.995-3.218-0.995-4.925s0.335-3.364 0.995-4.925c0.637-1.507 1.549-2.86 2.711-4.021s2.514-2.073 4.021-2.711c1.561-0.66 3.218-0.995 4.926-0.995s3.364 0.335 4.925 0.995c1.507 0.637 2.86 1.549 4.021 2.711s2.073 2.514 2.711 4.021c0.66 1.561 0.995 3.218 0.995 4.925s-0.335 3.364-0.995 4.925c-0.205 0.482-0.398 0.872-0.609 1.249l0.033-0.064 6.958 6.958c1.304 1.304 1.304 3.426-0 4.73l-0.57 0.57c-0.632 0.632-1.472 0.98-2.365 0.98zM18.507 23.895l7.088 7.088c0.622 0.622 1.448 0.964 2.327 0.964s1.705-0.342 2.327-0.964l0.57-0.57c1.283-1.283 1.283-3.371 0-4.654l-6.987-6.987 0.010-0.018c0.182-0.318 0.377-0.711 0.552-1.115l0.032-0.082c0.658-1.555 0.991-3.205 0.991-4.904s-0.333-3.35-0.991-4.904c-0.635-1.5-1.543-2.848-2.699-4.004s-2.503-2.064-4.004-2.699c-1.555-0.657-3.205-0.991-4.905-0.991s-3.35 0.333-4.904 0.991c-1.5 0.635-2.848 1.543-4.004 2.699s-2.064 2.503-2.699 4.004c-0.658 1.555-0.991 3.205-0.991 4.904s0.333 3.35 0.991 4.904c0.635 1.5 1.543 2.847 2.699 4.004s2.503 2.064 4.004 2.699c1.555 0.658 3.205 0.991 4.904 0.991s3.35-0.333 4.904-0.991c0.339-0.143 0.591-0.262 0.838-0.389l-0.071 0.033 0.017-0.009zM27.922 29.688c-0.001 0-0.002 0-0.003 0-0.284 0-0.541-0.116-0.727-0.302l-6.723-6.723 0.024-0.019c0.452-0.35 0.855-0.705 1.233-1.083l-0 0c0.27-0.27 0.529-0.553 0.774-0.847l0.017-0.020 0.019-0.023 6.686 6.686c0.402 0.402 0.402 1.057 0 1.459l-0.57 0.57c-0.186 0.187-0.443 0.302-0.727 0.302-0.001 0-0.002 0-0.003 0h0zM20.55 22.667l6.68 6.68c0.185 0.185 0.43 0.286 0.691 0.286s0.507-0.102 0.691-0.286l0.57-0.57c0.381-0.381 0.381-1.002 0-1.383l-6.644-6.644c-0.257 0.307-0.51 0.583-0.775 0.848l0-0c-0.373 0.373-0.769 0.723-1.185 1.047l-0.029 0.021zM12.818 22.991c-5.701 0-10.339-4.638-10.339-10.339s4.638-10.339 10.339-10.339 10.339 4.638 10.339 10.339c0 1.541-0.331 3.024-0.985 4.409-0.368 0.771-0.787 1.434-1.274 2.042l0.016-0.021c-0.593 0.742-1.265 1.385-2.012 1.93l-0.029 0.021c-0.608 0.445-1.3 0.839-2.036 1.15l-0.068 0.025c-1.254 0.519-2.583 0.782-3.951 0.782zM12.818 2.367c-5.671 0-10.285 4.614-10.285 10.285s4.614 10.285 10.285 10.285c1.36 0 2.682-0.262 3.93-0.778 0.8-0.335 1.488-0.727 2.122-1.19l-0.029 0.020c0.773-0.563 1.441-1.203 2.015-1.92l0.016-0.020c0.468-0.584 0.885-1.244 1.225-1.949l0.027-0.062c0.65-1.377 0.98-2.853 0.98-4.386 0-5.671-4.614-10.285-10.285-10.285z"></path>
</symbol>
<symbol id="inputClose" viewBox="0 0 32 32">
<path d="M23.859 8.142c-0.305-0.305-0.726-0.493-1.191-0.493s-0.886 0.189-1.191 0.493l-5.524 5.524-5.443-5.444c-0.305-0.305-0.726-0.494-1.191-0.494-0.931 0-1.685 0.754-1.685 1.685 0 0.465 0.189 0.886 0.494 1.191v0l5.443 5.443-5.363 5.363c-0.305 0.305-0.493 0.726-0.493 1.191 0 0.931 0.754 1.685 1.685 1.685 0.465 0 0.887-0.189 1.191-0.494l5.363-5.363 5.443 5.443c0.304 0.305 0.725 0.493 1.189 0.493 0.001 0 0.002 0 0.002 0h-0c0 0 0 0 0 0 0.93 0 1.685-0.754 1.685-1.685 0-0.465-0.189-0.886-0.493-1.191l-5.443-5.443 5.524-5.524c0.305-0.305 0.494-0.726 0.494-1.191s-0.189-0.886-0.494-1.191v0z"></path>
</symbol>
</defs>
</svg>
