<svg aria-hidden="true" style="position: absolute; width: 0; height: 0; overflow: hidden;" version="1.1" xmlns="http://www.w3.org/2000/svg" xmlns:xlink="http://www.w3.org/1999/xlink">
<defs>
<symbol id="icon-icon_astronaut" viewBox="0 0 32 32">
<path d="M15.744 5.995c0.485 0.261 0.533 0.405 0.789 0.405 0.23 0 0.433-0.147 0.506-0.365s-0.002-0.458-0.186-0.595c-0.19-0.142-0.39-0.27-0.597-0.384-0.259-0.147-0.589-0.057-0.736 0.203s-0.057 0.589 0.203 0.736z"></path>
<path d="M13.867 5.52c0.295 0 0.533-0.239 0.533-0.533s-0.239-0.533-0.533-0.533c-0.797-0.012-1.59 0.118-2.341 0.384-0.24 0.095-0.378 0.348-0.327 0.602s0.277 0.434 0.535 0.428c0.691-0.218 1.409-0.335 2.133-0.347z"></path>
<path d="M17.067 16.533c-0.657-0.032-1.301-0.195-1.893-0.48-0.166-0.084-0.363-0.075-0.521 0.023s-0.253 0.271-0.252 0.457c0 2.88 0 2.747 0.059 2.907 0.501 1.008 1.749 1.141 2.779 0.8 0.217-0.073 0.363-0.277 0.363-0.507v-2.667c0-0.295-0.239-0.533-0.533-0.533zM16.533 19.307c-0.376 0.104-0.779 0.008-1.067-0.256v-1.733c0.347 0.117 0.704 0.199 1.067 0.245z"></path>
<path d="M2.133 26.667c0-0.295-0.239-0.533-0.533-0.533h-1.067c-0.295 0-0.533 0.239-0.533 0.533s0.239 0.533 0.533 0.533h1.067c0.295 0 0.533-0.239 0.533-0.533z"></path>
<path d="M31.467 26.133h-12.267v-0.949c0.312 0.082 0.632 0.132 0.955 0.149 0.754-0.008 1.447-0.414 1.824-1.067 0.536 0.581 1.403 0.715 2.089 0.322s1.010-1.208 0.78-1.964c-0.395-1.291-0.848-2.795-1.323-4.128l1.307-5.221c0.182-0.727-0.030-1.496-0.56-2.027l-1.813-1.813c1.255-3.228-0.065-6.888-3.092-8.572s-6.832-0.875-8.913 1.894c-2.081 2.769-1.799 6.649 0.661 9.088-0.314 0.731-0.238 1.572 0.203 2.235-0.305 0.468-0.56 0.967-0.763 1.488l-3.253 4.416c-0.383 0.528-0.463 1.218-0.212 1.82s0.799 1.030 1.444 1.129c0.677 0.097 1.352-0.188 1.755-0.741l0.080-0.101c0.242 0.589 0.618 1.113 1.099 1.531 0.354 0.812 0.637 1.652 0.848 2.512h-8.581c-0.295 0-0.533 0.239-0.533 0.533s0.239 0.533 0.533 0.533h8.693c-0.065 0.703-0.286 1.382-0.645 1.989-0.581 1.061 0.245 2.277 1.552 2.277 0.404 0.002 0.798-0.129 1.12-0.373 0.291 0.492 0.796 0.82 1.364 0.887s1.134-0.135 1.532-0.545l1.445-1.547c0.289-0.313 0.436-0.732 0.405-1.157v-1.531h12.267c0.295 0 0.533-0.239 0.533-0.533s-0.239-0.533-0.533-0.533zM19.941 24.245l-0.741-0.149c0.051-1.263 0.25-2.516 0.592-3.733l1.477 2.741-0.091 0.347c-0.135 0.552-0.679 0.902-1.237 0.795zM23.515 12.005c0.266 0.265 0.373 0.649 0.283 1.013l-0.933 3.733c-0.266-0.784-0.655-1.52-1.152-2.181-0.271-0.271-0.596-0.48-0.955-0.613 0.367-0.569 0.28-1.318-0.208-1.787 0.558-0.489 1.035-1.063 1.413-1.701zM21.867 6.933c-0.002 1.801-0.831 3.501-2.249 4.611s-3.266 1.508-5.015 1.080c1.915-0.304 3.376-1.008 4.368-2.133 0.886-0.989 1.351-2.284 1.296-3.611v-0.075c0-0.096-0.629-2.395-4.011-4.080-1.116-0.582-2.389-0.789-3.632-0.592 1.791-1.261 4.136-1.418 6.080-0.408s3.164 3.018 3.163 5.208zM11.061 3.776c1.454-0.806 3.211-0.844 4.699-0.101 2.725 1.365 3.36 3.077 3.445 3.349 0.019 1.034-0.364 2.036-1.067 2.795-1.072 1.211-2.944 1.851-5.515 1.915-2.565-1.808-3.254-5.314-1.563-7.957zM8.693 21.867c-0.278-0.041-0.515-0.225-0.624-0.485s-0.075-0.557 0.091-0.785l1.728-2.336c-0.090 0.847-0.054 1.702 0.107 2.539l-0.533 0.752c-0.175 0.243-0.473 0.365-0.768 0.315zM12.923 30.288c-0.11-0.046-0.196-0.136-0.237-0.249s-0.032-0.237 0.024-0.343c1.067-1.899 0.955-3.2 0.219-5.291 0.668 0.211 1.37 0.298 2.069 0.256l0.469 3.637c0.027 0.256-0.155 0.373-0.736 0.992-0.096 0.096 0.293-0.304-0.848 0.896-0.263 0.237-0.647 0.284-0.96 0.117zM18.011 29.152l-1.445 1.568c-0.258 0.232-0.633 0.277-0.939 0.112-0.11-0.046-0.196-0.136-0.237-0.249s-0.032-0.237 0.024-0.343c0.048-0.085 0.096-0.176 0.139-0.272 0.533-0.576 1.067-0.981 0.971-1.803l-0.469-3.632h0.075c0.295-0.071 0.476-0.367 0.405-0.661s-0.367-0.476-0.661-0.405c-0.032 0-0.197 0.048-0.453 0.080h-0.032c-1.984 0.261-3.648-0.421-4.208-2.373-0.917-3.2 0.736-6.069 0.971-6.448 0.172 0.074 0.351 0.132 0.533 0.176 0.275 0.043 0.537-0.133 0.601-0.404s-0.091-0.545-0.355-0.631c-0.763-0.192-1.008-0.603-0.907-1.28 2.268 1.604 5.278 1.688 7.632 0.213 0.114 0.051 0.204 0.145 0.251 0.261 0.037 0.144-0.075 0.384-0.293 0.656-0.377 0-0.753 0.054-1.115 0.16-0.181 0.060-0.316 0.212-0.355 0.399s0.026 0.38 0.168 0.507 0.342 0.168 0.523 0.108c0 0 1.307-0.411 2.133 0.405 0.533 0.533 1.648 3.52 2.875 7.643 0.061 0.208 0.011 0.432-0.131 0.596s-0.358 0.242-0.573 0.21c-0.199-0.029-0.372-0.152-0.464-0.331l-2.992-5.547c-0.149-0.238-0.456-0.32-0.703-0.188s-0.35 0.433-0.235 0.689l0.389 0.725c-0.634 1.708-0.968 3.512-0.987 5.333v4.363c0.020 0.14-0.030 0.282-0.133 0.379z"></path>
<path d="M1.6 4.267h0.533v0.533c0 0.295 0.239 0.533 0.533 0.533s0.533-0.239 0.533-0.533v-0.533h0.533c0.295 0 0.533-0.239 0.533-0.533s-0.239-0.533-0.533-0.533h-0.533v-0.533c0-0.295-0.239-0.533-0.533-0.533s-0.533 0.239-0.533 0.533v0.533h-0.533c-0.295 0-0.533 0.239-0.533 0.533s0.239 0.533 0.533 0.533z"></path>
<path d="M27.733 7.467h0.533v0.533c0 0.295 0.239 0.533 0.533 0.533s0.533-0.239 0.533-0.533v-0.533h0.533c0.295 0 0.533-0.239 0.533-0.533s-0.239-0.533-0.533-0.533h-0.533v-0.533c0-0.295-0.239-0.533-0.533-0.533s-0.533 0.239-0.533 0.533v0.533h-0.533c-0.295 0-0.533 0.239-0.533 0.533s0.239 0.533 0.533 0.533z"></path>
<path d="M4.267 13.333c-0.295 0-0.533 0.239-0.533 0.533s0.239 0.533 0.533 0.533h0.533v0.533c0 0.295 0.239 0.533 0.533 0.533s0.533-0.239 0.533-0.533v-0.533h0.533c0.295 0 0.533-0.239 0.533-0.533s-0.239-0.533-0.533-0.533h-0.533v-0.533c0-0.295-0.239-0.533-0.533-0.533s-0.533 0.239-0.533 0.533v0.533z"></path>
<path d="M24.533 29.867c0.295 0 0.533-0.239 0.533-0.533s-0.239-0.533-0.533-0.533h-0.533c-0.295 0-0.533 0.239-0.533 0.533s0.239 0.533 0.533 0.533z"></path>
<path d="M29.867 28.8h-3.2c-0.295 0-0.533 0.239-0.533 0.533s0.239 0.533 0.533 0.533h3.2c0.295 0 0.533-0.239 0.533-0.533s-0.239-0.533-0.533-0.533z"></path>
<path d="M3.2 29.867c0.295 0 0.533-0.239 0.533-0.533s-0.239-0.533-0.533-0.533h-1.067c-0.295 0-0.533 0.239-0.533 0.533s0.239 0.533 0.533 0.533z"></path>
<path d="M5.333 29.867h4.267c0.295 0 0.533-0.239 0.533-0.533s-0.239-0.533-0.533-0.533h-4.267c-0.295 0-0.533 0.239-0.533 0.533s0.239 0.533 0.533 0.533z"></path>
</symbol>
<symbol id="icon-film" viewBox="0 0 32 32">
<path d="M0 4v24h32v-24h-32zM6 26h-4v-4h4v4zM6 18h-4v-4h4v4zM6 10h-4v-4h4v4zM24 26h-16v-20h16v20zM30 26h-4v-4h4v4zM30 18h-4v-4h4v4zM30 10h-4v-4h4v4zM12 10v12l8-6z"></path>
</symbol>
<symbol id="icon-rocket" viewBox="0 0 32 32">
<path d="M22 2l-10 10h-6l-6 8c0 0 6.357-1.77 10.065-0.94l-10.065 12.94 13.184-10.255c1.839 4.208-1.184 10.255-1.184 10.255l8-6v-6l10-10 2-10-10 2z"></path>
</symbol>
</defs>
</svg>
